# xmcd
#
# Track frame offsets:
#	150
#	2922
#	19356
#	34445
#	49272
#	63438
#	81401
#	97807
#	113147
#	133702
#	152268
#	169889
#	184768
#	198304
#	214113
#	232061
#	247277
#
# Disc length: 3486 seconds
#
# Revision: 1
# Processed by: cddbd v1.5.2PL0 Copyright (c) Steve Scherf et al.
# Submitted via: audiograbber 1.83.01
#
DISCID=f10d9c11
DTITLE=Josh Turner - Punching Bag
DYEAR=2012
DGENRE=Country
TTITLE0=Introduction by Michael Buffer
TTITLE1=Punching Bag
TTITLE2=Time Is Love
TTITLE3=Deeper Than My Love
TTITLE4=Good Problem
TTITLE5=Cold Shoulder
TTITLE6=Find Me A Baby
TTITLE7=Whatcha Reckon
TTITLE8=Pallbearer
TTITLE9=For The Love Of God
TTITLE10=I Was There
TTITLE11=Left Hand Man
TTITLE12=Punching Bag (Live)
TTITLE13=Your Man (Live)
TTITLE14=Long Black Train (Live)
TTITLE15=Time Is Love (Live)
TTITLE16=Why Don't We Just Dance (Live)
EXTD=
EXTT0=
EXTT1=
EXTT2=
EXTT3=
EXTT4=
EXTT5=
EXTT6=
EXTT7=
EXTT8=
EXTT9=
EXTT10=
EXTT11=
EXTT12=
EXTT13=
EXTT14=
EXTT15=
EXTT16=
PLAYORDER=
